<svg width="41" height="40" viewBox="0 0 41 40" fill="none" xmlns="http://www.w3.org/2000/svg">
<path d="M22.2904 16.9166V16.8691C22.2805 16.8847 22.2678 16.9015 22.2583 16.9166H22.2904Z" fill="#E6A33A"/>
<path d="M20.1369 0C9.0157 0 0 8.95441 0 20C0 31.0456 9.0157 40 20.1369 40C31.2581 40 40.2738 31.0456 40.2738 20C40.2738 8.95441 31.2581 0 20.1369 0ZM14.7449 29.3251H9.88754V14.8118H14.7449V29.3251V29.3251ZM12.3164 12.8314H12.2838C10.6544 12.8314 9.59842 11.7156 9.59842 10.3224C9.59842 8.89844 10.6859 7.81514 12.3483 7.81514C14.0107 7.81514 15.0328 8.89804 15.0647 10.3224C15.0647 11.716 14.0111 12.8314 12.3164 12.8314ZM32.263 29.3251H27.4052V21.5603C27.4052 19.6098 26.7024 18.2787 24.9445 18.2787C23.6022 18.2787 22.8035 19.1759 22.4519 20.0438C22.3236 20.3541 22.2906 20.786 22.2906 21.22V29.3251H17.4311C17.4311 29.3251 17.4965 16.1742 17.4311 14.8118H22.2897V16.8689C22.9354 15.8813 24.0881 14.4707 26.6685 14.4707C29.8656 14.4707 32.2622 16.5449 32.2622 21.003V29.3251H32.263Z" fill="#E6A33A"/>
</svg>
