<svg width="39" height="38" viewBox="0 0 39 38" fill="none" xmlns="http://www.w3.org/2000/svg">
<path d="M24.8519 9.42188H14.7858C12.2668 9.42188 10.2173 11.4556 10.2173 13.9551V24.0354C10.2173 26.535 12.2668 28.5687 14.7858 28.5687H24.8519C27.3709 28.5687 29.4204 26.535 29.4204 24.0354V13.9551C29.4204 11.4556 27.3709 9.42188 24.8519 9.42188ZM19.8381 25.0311C16.4236 25.0311 13.6458 22.304 13.6458 18.952C13.6458 15.6 16.424 12.8728 19.8381 12.8728C23.2522 12.8728 26.0303 15.6 26.0303 18.952C26.0303 22.304 23.2526 25.0311 19.8381 25.0311ZM26.1405 14.0699C25.3358 14.0699 24.6836 13.4226 24.6836 12.6241C24.6836 11.8256 25.3358 11.1783 26.1405 11.1783C26.9453 11.1783 27.5975 11.8256 27.5975 12.6241C27.5975 13.4226 26.9453 14.0699 26.1405 14.0699Z" fill="#E6A33A"/>
<path d="M19.8664 0C9.29929 0 0.73278 8.50053 0.73278 18.9862C0.73278 29.472 9.29929 37.9725 19.8664 37.9725C30.4335 37.9725 39 29.472 39 18.9862C39 8.50053 30.4335 0 19.8664 0ZM31.6802 24.035C31.6802 27.7713 28.6168 30.8107 24.8519 30.8107H14.7858C11.0205 30.8107 7.95755 27.7709 7.95755 24.035V13.9548C7.95755 10.2185 11.0209 7.17913 14.7858 7.17913H24.8519C28.6172 7.17913 31.6802 10.2189 31.6802 13.9548V24.035Z" fill="#E6A33A"/>
<path d="M19.8381 15.1108C17.6672 15.1108 15.9013 16.8338 15.9013 18.9518C15.9013 21.0698 17.6672 22.7928 19.8381 22.7928C22.009 22.7928 23.7748 21.0698 23.7748 18.9518C23.7748 16.8338 22.009 15.1108 19.8381 15.1108Z" fill="#E6A33A"/>
</svg>
