<svg width="40" height="38" viewBox="0 0 40 38" fill="none" xmlns="http://www.w3.org/2000/svg">
<path fill-rule="evenodd" clip-rule="evenodd" d="M19.9125 0C9.1999 0 0.513107 8.61912 0.513107 19.2523C0.513107 27.7571 6.07137 34.9724 13.7815 37.5185C14.7516 37.6953 15.1058 37.1008 15.1058 36.5906C15.1058 36.1336 15.0891 34.9231 15.0794 33.3164C9.68298 34.4799 8.54416 30.736 8.54416 30.736C7.66182 28.5121 6.39031 27.9199 6.39031 27.9199C4.62874 26.7256 6.5234 26.7498 6.5234 26.7498C8.47044 26.8861 9.49518 28.7339 9.49518 28.7339C11.2257 31.6758 14.0357 30.8261 15.1411 30.3336C15.3173 29.0896 15.8186 28.2414 16.3727 27.7601C12.0646 27.2742 7.53572 25.6229 7.53572 18.2455C7.53572 16.144 8.29157 14.4253 9.53281 13.0796C9.33338 12.5926 8.66755 10.6351 9.72294 7.98499C9.72294 7.98499 11.3518 7.46752 15.0581 9.95861C16.6055 9.53162 18.265 9.31794 19.9152 9.31062C21.5627 9.31794 23.2226 9.53162 24.7723 9.95861C28.4763 7.46752 30.1021 7.98499 30.1021 7.98499C31.1606 10.6355 30.4947 12.5926 30.2953 13.0796C31.5389 14.4253 32.2893 16.1436 32.2893 18.2455C32.2893 25.641 27.7534 27.2685 23.4314 27.7451C24.1279 28.3396 24.7487 29.5143 24.7487 31.3101C24.7487 33.8835 24.725 35.96 24.725 36.591C24.725 37.1058 25.0746 37.7049 26.059 37.5166C33.7606 34.9655 39.3142 27.7548 39.3142 19.2523C39.3142 8.61912 30.627 0 19.9125 0Z" fill="#E6A33A"/>
</svg>
