<svg width="48" height="47" viewBox="0 0 48 47" fill="none" xmlns="http://www.w3.org/2000/svg">
<path d="M26.1216 19.8771V19.8213C26.11 19.8396 26.095 19.8593 26.0839 19.8771H26.1216Z" fill="white"/>
<path d="M23.5979 0C10.5653 0 0 10.5214 0 23.5C0 36.4786 10.5653 47 23.5979 47C36.6306 47 47.1958 36.4786 47.1958 23.5C47.1958 10.5214 36.6306 0 23.5979 0ZM17.2792 34.457H11.587V17.4039H17.2792V34.457V34.457ZM14.4333 15.0768H14.3951C12.4857 15.0768 11.2482 13.7658 11.2482 12.1289C11.2482 10.4557 12.5225 9.18278 14.4707 9.18278C16.4188 9.18278 17.6166 10.4552 17.6539 12.1289C17.6539 13.7663 16.4193 15.0768 14.4333 15.0768ZM37.8082 34.457H32.1155V25.3333C32.1155 23.0416 31.2919 21.4775 29.2318 21.4775C27.6588 21.4775 26.7228 22.5316 26.3108 23.5515C26.1605 23.916 26.1217 24.4236 26.1217 24.9335V34.457H20.4271C20.4271 34.457 20.5037 19.0046 20.4271 17.4039H26.1208V19.821C26.8774 18.6606 28.2283 17.0031 31.2522 17.0031C34.9987 17.0031 37.8073 19.4402 37.8073 24.6785V34.457H37.8082Z" fill="white"/>
</svg>
