<svg width="45" height="45" viewBox="0 0 45 45" fill="none" xmlns="http://www.w3.org/2000/svg">
<path d="M28.4203 11.0703H16.624C13.672 11.0703 11.2703 13.4599 11.2703 16.3969V28.2412C11.2703 31.1782 13.672 33.5678 16.624 33.5678H28.4203C31.3722 33.5678 33.7739 31.1782 33.7739 28.2412V16.3969C33.7739 13.4599 31.3722 11.0703 28.4203 11.0703ZM22.5446 29.4111C18.5432 29.4111 15.288 26.2068 15.288 22.2682C15.288 18.3296 18.5437 15.1252 22.5446 15.1252C26.5455 15.1252 29.8012 18.3296 29.8012 22.2682C29.8012 26.2068 26.546 29.4111 22.5446 29.4111ZM29.9303 16.5317C28.9873 16.5317 28.2229 15.7712 28.2229 14.8329C28.2229 13.8947 28.9873 13.1342 29.9303 13.1342C30.8734 13.1342 31.6377 13.8947 31.6377 14.8329C31.6377 15.7712 30.8734 16.5317 29.9303 16.5317Z" fill="white"/>
<path d="M22.5778 0C10.1945 0 0.155609 9.98813 0.155609 22.3088C0.155609 34.6295 10.1945 44.6177 22.5778 44.6177C34.9611 44.6177 45 34.6295 45 22.3088C45 9.98813 34.9611 0 22.5778 0ZM36.4221 28.2412C36.4221 32.6313 32.8322 36.2026 28.4203 36.2026H16.624C12.2115 36.2026 8.62214 32.6308 8.62214 28.2412V16.3969C8.62214 12.0067 12.212 8.43548 16.624 8.43548H28.4203C32.8327 8.43548 36.4221 12.0072 36.4221 16.3969V28.2412Z" fill="white"/>
<path d="M22.5446 17.7549C20.0006 17.7549 17.9312 19.7794 17.9312 22.268C17.9312 24.7567 20.0006 26.7812 22.5446 26.7812C25.0887 26.7812 27.158 24.7567 27.158 22.268C27.158 19.7794 25.0887 17.7549 22.5446 17.7549Z" fill="white"/>
</svg>
