<svg width="46" height="45" viewBox="0 0 46 45" fill="none" xmlns="http://www.w3.org/2000/svg">
<path fill-rule="evenodd" clip-rule="evenodd" d="M22.8975 0C10.3436 0 0.163795 10.1275 0.163795 22.6214C0.163795 32.6145 6.67738 41.0926 15.7127 44.0843C16.8495 44.2919 17.2646 43.5934 17.2646 42.994C17.2646 42.457 17.2451 41.0347 17.2337 39.1468C10.9097 40.5139 9.57519 36.1148 9.57519 36.1148C8.5412 33.5017 7.05115 32.8059 7.05115 32.8059C4.9868 31.4026 7.20711 31.4311 7.20711 31.4311C9.4888 31.5912 10.6897 33.7623 10.6897 33.7623C12.7176 37.2191 16.0106 36.2206 17.306 35.642C17.5124 34.1803 18.0999 33.1837 18.7492 32.6182C13.7007 32.0472 8.39342 30.1069 8.39342 21.4384C8.39342 18.9692 9.27918 16.9497 10.7338 15.3685C10.5 14.7963 9.71978 12.4962 10.9566 9.38236C10.9566 9.38236 12.8654 8.77433 17.2087 11.7014C19.022 11.1997 20.9668 10.9486 22.9006 10.94C24.8313 10.9486 26.7765 11.1997 28.5926 11.7014C32.9332 8.77433 34.8384 9.38236 34.8384 9.38236C36.0788 12.4967 35.2985 14.7963 35.0648 15.3685C36.5221 16.9497 37.4015 18.9688 37.4015 21.4384C37.4015 30.1281 32.0861 32.0405 27.0211 32.6005C27.8373 33.299 28.5648 34.6793 28.5648 36.7893C28.5648 39.8132 28.5371 42.253 28.5371 42.9945C28.5371 43.5993 28.9468 44.3033 30.1004 44.082C39.1257 41.0844 45.6339 32.6118 45.6339 22.6214C45.6339 10.1275 35.4536 0 22.8975 0Z" fill="white"/>
</svg>
